# xmcd
#
# Track frame offsets: 
#        182
#        19670
#        37855
#        53170
#        72972
#        119137
#        148237
#        170045
#        189545
#        210235
#        230480
#        248287
#
# Disc length: 3567 seconds
#
# Revision: 3
# Processed by: cddbd v1.5.2PL0 Copyright (c) Steve Scherf et al.
# Submitted via: ExactAudioCopy v0.95b4
#
DISCID=a50ded0c
DTITLE=Black Cat Bone - Taylor Made
DYEAR=1997
DGENRE=Blues
TTITLE0=Wake Up Call
TTITLE1=Ain't That I Don't Love You
TTITLE2=The Stumble
TTITLE3=Cold Champagne
TTITLE4=Blind Willie McTell
TTITLE5=Mick's Song
TTITLE6=Get Out Of My Life Woman
TTITLE7=Slow Blues
TTITLE8=Heart Fixin' Man
TTITLE9=Mercy, Mercy
TTITLE10=Italian Summer
TTITLE11=Blue Shadows
EXTD=
EXTT0=
EXTT1=
EXTT2=
EXTT3=
EXTT4=
EXTT5=
EXTT6=
EXTT7=
EXTT8=
EXTT9=
EXTT10=
EXTT11=
PLAYORDER=
